<?xml version="1.0" encoding="UTF-8" standalone="no"?>
<svg
   xmlns:dc="http://purl.org/dc/elements/1.1/"
   xmlns:cc="http://creativecommons.org/ns#"
   xmlns:rdf="http://www.w3.org/1999/02/22-rdf-syntax-ns#"
   xmlns:svg="http://www.w3.org/2000/svg"
   xmlns="http://www.w3.org/2000/svg"
   xmlns:sodipodi="http://sodipodi.sourceforge.net/DTD/sodipodi-0.dtd"
   xmlns:inkscape="http://www.inkscape.org/namespaces/inkscape"
   width="512"
   height="512"
   viewBox="0 0 135.46666 135.46667"
   version="1.1"
   id="svg8"
   sodipodi:docname="MoneyBagIcon.svg"
   inkscape:version="1.0.1 (3bc2e813f5, 2020-09-07)"
   inkscape:export-filename="C:\Users\Chris\Documents\NetBeansProjects\Funds\src\Funds\Images\MoneyBagIcon.png"
   inkscape:export-xdpi="96"
   inkscape:export-ydpi="96">
  <defs
     id="defs2" />
  <sodipodi:namedview
     id="base"
     pagecolor="#737373"
     bordercolor="#000000"
     borderopacity="1"
     inkscape:pageopacity="0"
     inkscape:pageshadow="2"
     inkscape:zoom="0.7"
     inkscape:cx="295.71429"
     inkscape:cy="252.85715"
     inkscape:document-units="px"
     inkscape:current-layer="layer1"
     inkscape:document-rotation="0"
     showgrid="false"
     units="px"
     inkscape:pagecheckerboard="true"
     inkscape:window-width="1366"
     inkscape:window-height="705"
     inkscape:window-x="-8"
     inkscape:window-y="-8"
     inkscape:window-maximized="1"
     inkscape:snap-nodes="false" />
  <metadata
     id="metadata5">
    <rdf:RDF>
      <cc:Work
         rdf:about="">
        <dc:format>image/svg+xml</dc:format>
        <dc:type
           rdf:resource="http://purl.org/dc/dcmitype/StillImage" />
        <dc:title></dc:title>
      </cc:Work>
    </rdf:RDF>
  </metadata>
  <g
     inkscape:label="Layer 1"
     inkscape:groupmode="layer"
     id="layer1">
    <path
       style="fill:#d29967;fill-opacity:1;stroke:none;stroke-width:0.500516px;stroke-linecap:butt;stroke-linejoin:miter;stroke-opacity:1"
       d="M 49.863018,2.2678575 73.22791,12.311466 104.38111,6.403463 87.939143,32.398688 113.90014,45.987102 133.80357,64.892724 V 83.798341 L 126.88064,109.79357 98.323544,129.8808 68.901082,133.42559 25.632755,132.8348 11.786887,122.79118 2.2678575,105.65797 8.3254249,82.616742 25.632755,55.439914 43.805453,40.079097 54.189846,34.761892 Z"
       id="path830" />
    <path
       style="fill:none;stroke:#005100;stroke-width:6.08541659;stroke-linecap:butt;stroke-linejoin:miter;stroke-opacity:1;stroke-miterlimit:4;stroke-dasharray:none"
       d="m 51.782739,34.017857 c 0.503967,0 1.014793,-0.08285 1.511903,0 0.851014,0.141835 1.534676,0.889535 2.267857,1.133928 0.510368,0.170124 1.42316,0.06683 1.889882,0.377975 0.296508,0.197673 0.459444,0.558282 0.755952,0.755955 0.64077,0.427177 1.945531,0.02783 2.645833,0.377975 1.612442,0.80622 1.793803,0.518925 3.023809,1.133928 0.362768,0.181382 1.148919,-0.120994 1.511906,0 3.442906,1.147635 6.096346,1.13393 9.827379,1.13393 1.38484,0 4.720426,0.571241 5.669645,-0.377976 0.08909,-0.08909 -0.08909,-0.288888 0,-0.377978 0.301686,-0.301686 1.493329,0.198276 1.889879,0 1.071081,-0.535541 2.262899,-1.51025 3.401787,-1.889879 0.644002,-0.214667 1.550961,-0.79501 1.511904,-0.755955 -1.611464,1.611464 0.533185,-0.911159 0.755951,-1.133927 0.23222,-0.232217 0.880809,-0.249709 1.13393,-0.755952 0.112692,-0.225382 -0.112691,-0.530571 0,-0.755954 0.359966,-0.719931 0.891638,-1.647589 1.511904,-2.267855 0.589531,-0.589531 0.0853,-0.548584 0.377978,-1.13393 0.84655,-1.693106 3.373498,-1.861592 4.535712,-3.023809 0.08909,-0.08909 -0.08909,-0.288886 0,-0.377976 0.280617,-0.280617 2.668749,0 3.02381,0 0.50397,0 1.15555,-0.356359 1.51191,0 0.19522,0.195221 0,1.942703 0,2.267858 0,3.572346 -1.016473,4.622551 -4.157744,5.669642 -1.122111,0.374036 -2.936242,0 -4.157736,0 -0.755952,0 -1.511906,0 -2.267858,0 -0.251984,0 -0.755951,-0.251984 -0.755951,0 0,0.125992 0.467066,0.08909 0.377975,0 -0.321217,-0.321217 -0.81271,-0.434734 -1.13393,-0.755952 -0.125992,-0.125991 -0.251984,-0.50397 -0.377975,-0.377978 -0.125992,0.125992 0.556156,0.377978 0.377975,0.377978 -0.592026,0 -1.054367,-0.915072 -1.511903,0 -0.05635,0.112689 -0.08909,0.467064 0,0.377976 0.19921,-0.199212 0.377976,-1.03768 0.377976,-0.755954 0,0.636299 -0.75225,1.897285 -0.377976,2.645833 0.220147,0.440296 0.535805,0.693635 0.755952,1.13393 0.403174,0.80635 -0.403175,2.21746 0,3.023809 0.741547,1.483096 2.28837,5.669643 4.157739,5.669643 0.942628,0 3.193555,0.586205 3.401785,0.377976 0.338743,-0.338744 0,-2.598979 0,-3.023809 0,-1.223312 -0.182761,-3.584546 -1.133928,-4.535715 -0.253767,-0.253765 -1.212797,-0.913683 -1.511905,-1.511904 -0.194935,-0.389871 -0.222388,-0.867145 -0.755952,-1.13393 -0.112691,-0.05634 -0.288888,0.08909 -0.377976,0 -0.08909,-0.08909 0.08909,-0.288885 0,-0.377975 -0.08909,-0.08909 -0.288888,0.08909 -0.377978,0 -0.08909,-0.08909 0.08909,-0.288886 0,-0.377976 -0.08909,-0.08909 -0.288886,0.08909 -0.377976,0 -0.48513,-0.48513 -0.770552,-1.148527 -1.133928,-1.511904 -0.236699,-0.236698 -0.740666,0.01529 -1.13393,-0.377978"
       id="path832" />
    <path
       style="fill:none;stroke:#005100;stroke-width:6.61458325;stroke-linecap:butt;stroke-linejoin:miter;stroke-opacity:1;stroke-miterlimit:4;stroke-dasharray:none"
       d="m 92.22619,65.389881 c -2.719893,-4.066553 -4.348695,-3.717422 -7.9375,-4.913691 -0.848609,-0.282869 -1.027298,-0.702638 -1.889882,-1.13393 -0.85621,-0.428104 -2.545479,0.05018 -3.401785,-0.377976 -0.318738,-0.159369 -0.459443,-0.558279 -0.755951,-0.755951 -0.510834,-0.340554 -12.275127,-1.19996 -13.607145,-0.755952 -0.377976,0.125992 -0.852202,0.09625 -1.133928,0.377976 -0.08909,0.08909 0.112692,0.32163 0,0.377976 -0.835951,0.417975 -1.06395,-0.447956 -1.889881,0.377975 -0.08909,0.08909 0.112691,0.321631 0,0.377976 -0.593337,0.29667 -1.617348,0.161139 -2.267858,0.377976 -0.725294,0.241766 -1.261242,0.81961 -1.889879,1.13393 -0.302382,0.151191 -0.831548,-0.151191 -1.13393,0 -0.6413,0.320649 -3.641199,3.364074 -3.779761,3.779761 -0.524375,1.573125 -2.080083,6.232964 -1.511906,7.9375 0.295939,0.887814 0.788461,1.922388 1.511906,2.645833 0.08909,0.08909 0.32163,-0.112689 0.377976,0 0.112691,0.225383 -0.139777,0.546291 0,0.755954 0.156273,0.234411 0.556742,0.178763 0.755952,0.377976 0.08909,0.08909 0,0.251984 0,0.377976 0.125992,0.125992 0.229721,0.279141 0.377975,0.377976 0.622218,0.414811 1.267667,0.719116 1.889882,1.133927 0.727861,0.485243 1.518888,1.518888 1.889882,1.889882 0.340598,0.340598 1.43919,0.530606 1.889881,0.755951 0.45357,0.226788 0.680355,0.907146 1.133928,1.13393 0.738595,0.369298 1.765554,-0.06216 2.645833,0.377976 0.770517,0.385257 0.506063,0.506064 1.133928,1.133928 0.256458,0.256458 1.165987,-0.172958 1.511906,0 1.30603,0.653015 0.842777,0.896416 2.267857,1.13393 0.372832,0.06214 0.775348,-0.119528 1.133927,0 0.430959,0.143653 0.727618,0.552796 1.13393,0.755951 0.396532,0.198269 1.602558,0.09065 1.88988,0.377976 0.806995,0.806995 0.497673,0.626814 1.511905,1.13393 2.408627,1.204312 5.314122,0.583806 7.559524,2.267858 0.225381,0.169034 0.178766,0.556741 0.377976,0.755951 0.178181,0.178179 0.516898,-0.07968 0.755952,0 0.53454,0.178179 1.043083,0.443405 1.511906,0.755952 1.095065,0.730046 6.672252,4.273076 7.181548,5.291667 0.112689,0.225382 -0.139777,0.54629 0,0.755951 0.337614,0.506426 0.945026,0.945203 1.133928,1.511906 0.702151,2.106448 0.553471,9.098418 -0.377976,10.961308 -0.05635,0.11269 -0.288888,-0.0891 -0.377976,0 -0.213572,0.21357 -0.474387,1.23034 -0.755954,1.51191 -0.08909,0.0891 -0.288886,-0.0891 -0.377976,0 -0.243012,0.24301 -0.890913,1.26889 -1.133928,1.5119 -0.482092,0.48209 -1.487154,1.88988 -1.889881,1.88988 -1.769121,0 0.174516,-0.22538 -1.133928,0.75595 -0.810757,0.60807 -2.459897,0.81997 -3.401787,1.13393 -0.788734,0.26291 -1.101146,0.87102 -1.889879,1.13393 -1.02502,0.34167 -2.066854,0.27747 -3.023809,0.75595 -0.08202,0.041 -10.46697,0.37798 -11.717264,0.37798 -3.053342,0 -10.448366,0.55616 -13.229166,0 -0.828768,-0.16575 -1.491015,-0.801 -2.267858,-1.13393 -0.490884,-0.83491 -1.293394,-0.13938 -1.889879,-0.37797 -1.104167,-0.44167 -2.475084,-1.57283 -3.401787,-2.26786 -1.172599,-0.87945 -3.210124,-1.32024 -4.157737,-2.26786 -0.199213,-0.19921 -0.178766,-0.55674 -0.377976,-0.75595 -0.488947,-0.48895 -1.365776,-0.9878 -1.889881,-1.51191 -0.391848,-0.39185 -0.830096,-1.66019 -1.13393,-2.26785 -0.658464,-1.31693 -1.985378,-2.45885 -2.645834,-3.77977 -0.465621,-0.93124 -0.709821,-1.79762 -1.133927,-2.64583 -0.112691,-0.22538 0.112691,-0.53057 0,-0.75595 -0.187489,-0.374981 -0.625449,-0.742413 -0.755952,-1.13393 -0.499893,-1.49968 0,-3.095914 0,-4.157737"
       id="path834" />
    <path
       style="fill:none;stroke:#005100;stroke-width:5.82083;stroke-linecap:butt;stroke-linejoin:miter;stroke-miterlimit:4;stroke-dasharray:none;stroke-opacity:1"
       d="m 65.767855,46.491072 c 0.535311,1.752751 -0.444182,3.892904 0,5.669642 0.136658,0.54663 0.619295,0.965274 0.755955,1.511904 0.514175,2.056701 -0.220803,5.763188 0.377975,7.559524 1.10965,3.328947 0.755952,7.303725 0.755952,10.961309 0,1.622822 0.539782,5.832094 0,7.181548 -0.132347,0.330872 -0.596582,0.437216 -0.755952,0.755952 -0.225382,0.450762 0.15937,1.033798 0,1.511905 -0.47186,1.415582 -1.050364,2.773114 -1.511905,4.157737 -0.221742,0.665226 -0.938223,1.302769 -1.133928,1.889882 -0.377976,1.13393 0.188987,0.377976 0,1.13393 -0.356396,1.425577 -0.855424,3.222749 -1.511906,4.535712 -0.504904,1.009811 -1.472205,1.979623 -1.889881,3.023809 -0.484415,1.211043 -0.20618,1.546289 -0.755952,2.645834 -0.576331,1.15266 -0.299646,-0.691296 -0.755952,1.13393 -0.06112,0.24446 0.112692,0.53057 0,0.75595 -0.159369,0.31874 -0.596585,0.43722 -0.755951,0.75595 -0.112692,0.22539 0.06111,0.5115 0,0.75596 -0.247954,0.99181 -1.188289,1.67498 -1.511906,2.64583 -0.07968,0.23905 0.112691,0.53057 0,0.75595 -0.332018,0.66404 -1.195581,1.25723 -1.511906,1.88988 -0.112689,0.22538 0.112691,0.53057 0,0.75596 -0.32485,0.6497 -1.800582,2.77875 -2.267855,3.40178 -0.320725,0.42763 -0.894876,0.65582 -1.13393,1.13393 -0.342305,0.68461 -0.588087,2.09999 -1.133927,2.64583 -0.408091,0.40809 -1.971016,1.44462 -2.267858,1.88988 -0.525269,0.78791 -1.322977,2.07893 -1.889881,2.64584 -0.462918,0.46291 -1.109626,0.53051 -1.511904,1.13393 -0.306123,0.45918 -0.817872,1.57382 -1.13393,1.88988 -0.219075,0.21907 -1.292831,0.53687 -1.511903,0.75595 -0.505378,0.50538 -1.369473,2.26786 -2.267858,2.26786"
       id="path836" />
    <path
       style="fill:none;stroke:#005100;stroke-width:5.82083;stroke-linecap:butt;stroke-linejoin:miter;stroke-miterlimit:4;stroke-dasharray:none;stroke-opacity:1"
       d="m 79.490081,47.917765 c 0.53531,1.752751 -0.44419,3.892904 0,5.669642 0.13666,0.54663 0.61929,0.965274 0.75595,1.511904 0.51418,2.056701 -0.2208,5.763188 0.37798,7.559524 1.10965,3.328947 0.75595,7.303725 0.75595,10.961308 0,1.622822 0.53978,5.832094 0,7.181549 -0.13235,0.330872 -0.59658,0.437216 -0.75595,0.755951 -0.22539,0.450763 0.15937,1.033799 0,1.511906 -0.47186,1.415582 -1.05037,2.773114 -1.51191,4.157737 -0.22174,0.665226 -0.93822,1.302768 -1.13393,1.889881 -0.37797,1.13393 0.18899,0.377976 0,1.13393 -0.35639,1.425578 -0.85542,3.22275 -1.5119,4.535713 -0.50491,1.00981 -1.47221,1.97962 -1.88988,3.02381 -0.48442,1.21104 -0.20618,1.54629 -0.75596,2.64583 -0.57633,1.15266 -0.29964,-0.69129 -0.75595,1.13393 -0.0611,0.24446 0.11269,0.53057 0,0.75595 -0.15937,0.31874 -0.59658,0.43722 -0.75595,0.75595 -0.11269,0.22539 0.0611,0.5115 0,0.75596 -0.24795,0.99181 -1.18829,1.67498 -1.5119,2.64583 -0.0797,0.23905 0.11269,0.53057 0,0.75595 -0.33202,0.66404 -1.195586,1.25723 -1.511911,1.88988 -0.112689,0.22538 0.112691,0.53057 0,0.75596 -0.32485,0.6497 -1.800582,2.77875 -2.267855,3.40178 -0.320725,0.42763 -0.894876,0.65582 -1.13393,1.13393 -0.342305,0.68461 -0.588087,2.09999 -1.133927,2.64583 -0.408091,0.40809 -1.971015,1.44462 -2.267858,1.88988 -0.525268,0.78791 -1.322977,2.07893 -1.88988,2.64584 -0.462918,0.46291 -1.109626,0.53051 -1.511904,1.13393 -0.306123,0.45918 -0.817873,1.57382 -1.133931,1.88988 -0.219075,0.21907 -1.29283,0.53687 -1.511903,0.75595 -0.505377,0.50538 -1.369472,2.26786 -2.267857,2.26786"
       id="path836-0" />
  </g>
</svg>
